<?xml version="1.0" encoding="utf-8"?>
<!-- Generator: Adobe Illustrator 26.0.2, SVG Export Plug-In . SVG Version: 6.00 Build 0)  -->
<svg version="1.1" id="Calque_1" xmlns="http://www.w3.org/2000/svg" xmlns:xlink="http://www.w3.org/1999/xlink" x="0px" y="0px"
	 viewBox="0 0 24 24" style="enable-background:new 0 0 24 24;" xml:space="preserve">
<path d="M16.7,22.1c-0.1,0-0.1,0-0.2,0c-1.2-0.1-2.2-1.1-2.9-2c-1.4-1.7-2.2-3.9-2.4-6.3c-2.2,1-4.5,1.4-6.8,1.2
	c-1-0.1-2.6-0.2-3.3-1.2c-0.3-0.3-0.5-0.9-0.4-1.8C1,9.7,3.4,9.6,4.9,9.6C7,9.5,9,9.9,11.2,10.8C11.4,9,12,7.2,12.9,5.6
	c0.7-1.3,1.7-2.8,3.1-3.1c0.5-0.1,1.2-0.1,2,0.5c0.6,0.5,1,1.1,1.1,1.9c0.1,1.3-0.5,2.6-1.2,3.4c-1,1.2-2.1,2.2-3.2,3.2
	c-0.3,0.3-0.6,0.5-0.8,0.8c1.5,0.9,2.8,2.2,3.8,3.7c0.6,0.9,2.5,3.7,0.6,5.5C17.8,21.9,17.3,22.1,16.7,22.1z M13.2,14.2
	c0.2,1.8,0.9,3.4,1.9,4.6c0.9,1.1,1.4,1.3,1.5,1.3c0,0,0.1,0,0.2-0.1c0.2-0.2,0.7-0.7-0.9-2.9C15.3,15.9,14.3,15,13.2,14.2z
	 M5.4,11.6c-0.2,0-0.3,0-0.5,0c-1.5,0.1-2.3,0.2-2.4,0.8c0,0.1,0,0.2,0,0.2C2.8,12.9,4.1,13,4.5,13c1.7,0.1,3.4-0.1,5.1-0.7
	C8.1,11.8,6.8,11.6,5.4,11.6z M16.5,4.5C16.5,4.5,16.4,4.5,16.5,4.5c-0.3,0.1-0.9,0.4-1.9,2.1c-0.6,1-1,2.2-1.2,3.4
	c1.1-1,2.1-1.9,3-3c0.5-0.6,0.8-1.4,0.7-1.9c0-0.2-0.1-0.4-0.3-0.5C16.7,4.5,16.6,4.5,16.5,4.5z"/>
</svg>
