<?xml version="1.0" encoding="utf-8"?>
<!-- Generator: Adobe Illustrator 16.0.4, SVG Export Plug-In . SVG Version: 6.00 Build 0)  -->
<!DOCTYPE svg PUBLIC "-//W3C//DTD SVG 1.1//EN" "http://www.w3.org/Graphics/SVG/1.1/DTD/svg11.dtd">
<svg version="1.1" id="Calque_1" xmlns="http://www.w3.org/2000/svg" xmlns:xlink="http://www.w3.org/1999/xlink" x="0px" y="0px"
	 width="24px" height="24px" viewBox="0 0 24 24" enable-background="new 0 0 24 24" xml:space="preserve">
<circle fill="#FF3333" cx="12" cy="12" r="12"/>
<g id="Logo_WIMS">
	<path fill="none" stroke="#FFFFFF" stroke-width="2" stroke-linecap="round" stroke-linejoin="round" stroke-miterlimit="10" d="
		M11.428,12.007c-2.068-0.943-4.189-1.531-6.516-1.433c-1.391,0.059-3.075,0.137-3.313,1.626c-0.244,1.532,1.608,1.709,2.85,1.813
		c2.452,0.209,4.784-0.271,6.979-1.387l1.24-0.621c1.501-1.449,3.116-2.797,4.458-4.379c0.853-1.007,1.567-2.856,0.306-3.792
		c-1.513-1.123-2.842,0.761-3.691,2.268c-2.37,4.195-2.095,10.055,0.619,13.364c0.854,1.041,2.113,2.289,3.211,1.272
		c1.209-1.118,0.188-2.927-0.706-4.238c-1.13-1.66-2.568-2.953-4.349-3.874L11.428,12.007z"/>
</g>
</svg>
